D:\school\WTK\thesis\model\3dpredictsim\Results\batch_windlass\Pog_s1_tmt_aCst_d00_k500_WL10_ig24_pas_GRF.mot
nRows=20
nColumns=19

name D:\school\WTK\thesis\model\3dpredictsim\Results\batch_windlass\Pog_s1_tmt_aCst_d00_k500_WL10_ig24_pas_GRF.mot
datacolumns 19
datarows 20
range 0.5364309115 0.7402746578
endheader
time 	ground_force_vx	ground_force_vy	ground_force_vz	ground_force_px	ground_force_py	ground_force_pz	1_ground_force_vx	1_ground_force_vy	1_ground_force_vz	1_ground_force_px	1_ground_force_py	1_ground_force_pz	ground_torque_x	ground_torque_y	ground_torque_z	1_ground_torque_x	1_ground_torque_y	1_ground_torque_z
        0.5364309115	       94.6741620749	      460.7152858321	        4.3795059263	        0.3384908092	        0.0000000000	        0.0342823514	      -84.8876518178	       73.7310341734	      -33.8277529901	        0.8078788864	        0.0000000000	       -0.0394222504	        0.0000000000	        0.0000000000	        0.0000000000	        0.0000000000	        0.0000000000	        0.0000000000	
        0.5471595297	       71.4869192555	      373.4616643709	       10.9771518312	        0.3434049344	        0.0000000000	        0.0325228257	     -118.1811758466	      144.3798051405	      -78.2217372551	        0.8170388173	        0.0000000000	       -0.0381470969	        0.0000000000	        0.0000000000	        0.0000000000	        0.0000000000	        0.0000000000	        0.0000000000	
        0.5578881479	       43.4290089978	      272.2340823355	       13.3241158615	        0.3517947951	        0.0000000000	        0.0288408799	      -55.0819482023	      315.1294374137	      -35.2527429937	        0.8292179191	        0.0000000000	       -0.0383522035	        0.0000000000	        0.0000000000	        0.0000000000	        0.0000000000	        0.0000000000	        0.0000000000	
        0.5686167662	       17.9475131054	      179.8266120154	       11.6228826287	        0.3658226462	        0.0000000000	        0.0215629796	      -57.1270097986	      525.3559570797	       -1.5065785599	        0.8383925474	        0.0000000000	       -0.0399598518	        0.0000000000	        0.0000000000	        0.0000000000	        0.0000000000	        0.0000000000	        0.0000000000	
        0.5793453844	        2.8543769847	      142.7421329177	       10.9544985424	        0.3701989275	        0.0000000000	        0.0188288008	      -88.4798497218	      729.6079314398	        9.9951501697	        0.8470776031	        0.0000000000	       -0.0404950357	        0.0000000000	        0.0000000000	        0.0000000000	        0.0000000000	        0.0000000000	        0.0000000000	
        0.5900740026	       -0.5924835809	      106.5581756432	       10.3021888483	        0.3706054283	        0.0000000000	        0.0188614646	     -113.2162238807	      876.8245447333	       13.1973118465	        0.8570456598	        0.0000000000	       -0.0400347839	        0.0000000000	        0.0000000000	        0.0000000000	        0.0000000000	        0.0000000000	        0.0000000000	
        0.6008026208	       -9.7355245376	       63.5357106086	        9.2448885010	        0.3703626914	        0.0000000000	        0.0189906400	     -122.8443875465	      916.4261735654	       12.0003434354	        0.8643257239	        0.0000000000	       -0.0394072577	        0.0000000000	        0.0000000000	        0.0000000000	        0.0000000000	        0.0000000000	        0.0000000000	
        0.6115312391	       -7.7697572259	       16.6815609096	        3.1846590930	        0.3700837368	        0.0000000000	        0.0188250238	     -114.0688475023	      886.9299253736	        9.0005267617	        0.8683309468	        0.0000000000	       -0.0389131669	        0.0000000000	        0.0000000000	        0.0000000000	        0.0000000000	        0.0000000000	        0.0000000000	
        0.6222598573	        0.0674485550	       -0.0684571833	       -0.0061113850	        0.0000000000	        0.0000000000	        0.0000000000	      -99.2845113531	      837.6168589456	        8.5125118287	        0.8716296939	        0.0000000000	       -0.0385247769	        0.0000000000	        0.0000000000	        0.0000000000	        0.0000000000	        0.0000000000	        0.0000000000	
        0.6329884755	        0.0001608846	       -0.0001359668	        0.0000004832	        0.0000000000	        0.0000000000	        0.0000000000	      -85.8486529055	      790.2150501789	       10.5442519970	        0.8748779925	        0.0000000000	       -0.0382276248	        0.0000000000	        0.0000000000	        0.0000000000	        0.0000000000	        0.0000000000	        0.0000000000	
        0.6437170938	        0.0000198534	       -0.0000142798	        0.0000008083	        0.0000000000	        0.0000000000	        0.0000000000	      -73.7121373851	      750.3806872138	       12.2617593463	        0.8781178959	        0.0000000000	       -0.0380456627	        0.0000000000	        0.0000000000	        0.0000000000	        0.0000000000	        0.0000000000	        0.0000000000	
        0.6544457120	        0.0000893032	       -0.0000563598	        0.0000055875	        0.0000000000	        0.0000000000	        0.0000000000	      -61.5151105112	      715.7635987441	       13.5059358529	        0.8817239640	        0.0000000000	       -0.0379606035	        0.0000000000	        0.0000000000	        0.0000000000	        0.0000000000	        0.0000000000	        0.0000000000	
        0.6651743302	        0.0027631468	       -0.0015774888	        0.0002089320	        0.0000000000	        0.0000000000	        0.0000000000	      -50.7155835907	      685.0195629472	       15.2167686019	        0.8863284275	        0.0000000000	       -0.0379228598	        0.0000000000	        0.0000000000	        0.0000000000	        0.0000000000	        0.0000000000	        0.0000000000	
        0.6759029484	       -0.0216786075	        0.0114800772	       -0.0018239421	        0.0000000000	        0.0000000000	        0.0000000000	      -42.9386192958	      658.5680166297	       16.6463186170	        0.8917640576	        0.0000000000	       -0.0379005396	        0.0000000000	        0.0000000000	        0.0000000000	        0.0000000000	        0.0000000000	        0.0000000000	
        0.6866315667	       -0.0183365554	        0.0091692231	       -0.0016559167	        0.0000000000	        0.0000000000	        0.0000000000	      -37.4169645888	      636.9619573340	       17.8203892858	        0.8975150117	        0.0000000000	       -0.0378787129	        0.0000000000	        0.0000000000	        0.0000000000	        0.0000000000	        0.0000000000	        0.0000000000	
        0.6973601849	       -0.0127260790	        0.0060757350	       -0.0012087256	        0.0000000000	        0.0000000000	        0.0000000000	      -32.9259983769	      620.2241564163	       18.7131480093	        0.9035410739	        0.0000000000	       -0.0378546641	        0.0000000000	        0.0000000000	        0.0000000000	        0.0000000000	        0.0000000000	        0.0000000000	
        0.7080888031	       -0.0109135924	        0.0050072165	       -0.0010773167	        0.0000000000	        0.0000000000	        0.0000000000	      -29.5339540274	      607.5062496059	       19.2588603625	        0.9095933693	        0.0000000000	       -0.0378249089	        0.0000000000	        0.0000000000	        0.0000000000	        0.0000000000	        0.0000000000	        0.0000000000	
        0.7188174214	       -0.0122483022	        0.0054236241	       -0.0012388110	        0.0000000000	        0.0000000000	        0.0000000000	      -26.7467338642	      597.7875010671	       19.1442873533	        0.9154484026	        0.0000000000	       -0.0377986394	        0.0000000000	        0.0000000000	        0.0000000000	        0.0000000000	        0.0000000000	        0.0000000000	
        0.7295460396	       -0.0175422388	        0.0075225476	       -0.0017928970	        0.0000000000	        0.0000000000	        0.0000000000	      -24.1954609008	      590.6742943034	       18.5757561531	        0.9212056408	        0.0000000000	       -0.0377656579	        0.0000000000	        0.0000000000	        0.0000000000	        0.0000000000	        0.0000000000	        0.0000000000	
        0.7402746578	       -0.0301485582	        0.0125623503	       -0.0030825872	        0.0000000000	        0.0000000000	        0.0000000000	      -22.7680064977	      585.7487564913	       18.0364137231	        0.9267808341	        0.0000000000	       -0.0377174646	        0.0000000000	        0.0000000000	        0.0000000000	        0.0000000000	        0.0000000000	        0.0000000000	
